<?xml version="1.0" encoding="UTF-8"?>
<svg xmlns="http://www.w3.org/2000/svg" xmlns:xlink="http://www.w3.org/1999/xlink" viewBox="0 0 403.37 359.5">
  <defs>
    <style>
      .cls-1 {
        fill: none;
      }

      .cls-2 {
        clip-path: url(#clippath);
      }

      .cls-3 {
        fill: #fb852a;
      }

      .cls-4 {
        fill: #f9f3d3;
      }

      .cls-5 {
        fill: #e8eef4;
      }

      .cls-6 {
        fill: #fff;
      }

      .cls-7 {
        fill: #e76e1e;
      }

      .cls-8 {
        fill: #c1c8dc;
      }

      .cls-9 {
        fill: #cddcfb;
      }

      .cls-10 {
        fill: #a4a9c2;
      }

      .cls-11 {
        fill: #d8dfe9;
      }

      .cls-12 {
        fill: #ccd4eb;
      }

      .cls-13 {
        fill: #10191b;
      }

      .cls-14 {
        fill: #242a31;
      }

      .cls-15 {
        fill: #37404a;
      }

      .cls-16 {
        clip-path: url(#clippath-1);
      }

      .cls-17 {
        clip-path: url(#clippath-4);
      }

      .cls-18 {
        clip-path: url(#clippath-3);
      }

      .cls-19 {
        clip-path: url(#clippath-2);
      }

      .cls-20 {
        clip-path: url(#clippath-6);
      }

      .cls-21 {
        clip-path: url(#clippath-5);
      }

      .cls-22 {
        isolation: isolate;
      }
    </style>
    <clipPath id="clippath">
      <path class="cls-5" d="M185.98,199.36l-27.23-22.72c-1.58-1.32-2.3-3.68-1.78-6.76l27.23,22.72c-.52,3.09,.2,5.44,1.78,6.76Z"/>
    </clipPath>
    <clipPath id="clippath-1">
      <path class="cls-6" d="M240.65,44.16l27.23,22.72c-1.6-1.34-4.09-1.61-7.08-.51l-27.23-22.72c2.99-1.11,5.48-.83,7.08,.51Z"/>
    </clipPath>
    <clipPath id="clippath-2">
      <path class="cls-5" d="M199.8,99.52l-27.23-22.72c1.04-6.21,6.7-13.04,12.64-15.23l27.23,22.72c-5.94,2.2-11.6,9.02-12.64,15.23Z"/>
    </clipPath>
    <clipPath id="clippath-3">
      <path class="cls-1" d="M215.9,85.44l6.32,5.29c-.52-.44-1.34-.54-2.33-.18l-6.32-5.29c.99-.36,1.8-.26,2.33,.18Z"/>
    </clipPath>
    <clipPath id="clippath-4">
      <path class="cls-1" d="M216.27,97.76l-6.32-5.29c-.52-.44-.75-1.22-.57-2.23,.36-2.04,2.24-4.27,4.2-4.98l6.32,5.29c-1.96,.71-3.84,2.94-4.2,4.98-.18,1.01,.05,1.79,.57,2.23Z"/>
    </clipPath>
    <clipPath id="clippath-5">
      <path class="cls-1" d="M222.25,91.6l2.46,2.05c-.45-.38-1.16-.47-2.01-.16l-2.46-2.05c.85-.31,1.56-.22,2.01,.16Z"/>
    </clipPath>
    <clipPath id="clippath-6">
      <path class="cls-1" d="M219.56,99.72l-2.46-2.05c-.45-.38-.65-1.05-.49-1.93,.31-1.76,1.93-3.69,3.62-4.3l2.46,2.05c-1.69,.61-3.32,2.54-3.62,4.3-.15,.88,.05,1.55,.49,1.93Z"/>
    </clipPath>
  </defs>
  <g id="Layer_3" data-name="Layer 3">
    <g>
      <polygon class="cls-4" points="207.29 16.35 205.26 17.26 204.85 19.44 203.37 17.79 201.16 18.08 202.28 16.15 201.32 14.14 203.5 14.61 205.11 13.08 205.34 15.29 207.29 16.35"/>
      <polygon class="cls-4" points="179.78 38.81 179.17 41.64 181.15 43.75 178.27 44.04 176.88 46.58 175.71 43.93 172.86 43.39 175.02 41.46 174.66 38.59 177.16 40.04 179.78 38.81"/>
      <polygon class="cls-4" points="364.17 186.88 364.32 189.11 366.23 190.25 364.16 191.07 363.66 193.25 362.24 191.53 360.02 191.73 361.21 189.85 360.34 187.8 362.5 188.35 364.17 186.88"/>
      <polygon class="cls-4" points="375.17 173.19 377.33 172.58 378.05 170.46 379.3 172.32 381.54 172.35 380.15 174.12 380.82 176.26 378.71 175.48 376.88 176.78 376.97 174.54 375.17 173.19"/>
      <polygon class="cls-4" points="325.55 156.33 327.15 155.82 327.63 154.21 328.61 155.57 330.29 155.53 329.3 156.89 329.86 158.47 328.26 157.95 326.93 158.97 326.93 157.29 325.55 156.33"/>
      <polygon class="cls-4" points="390.62 137.15 389.57 139.8 391.16 142.16 388.32 141.98 386.56 144.22 385.85 141.46 383.18 140.49 385.58 138.96 385.69 136.11 387.88 137.93 390.62 137.15"/>
      <polygon class="cls-4" points="160.56 345.08 158.49 345.7 157.83 347.77 156.6 345.99 154.43 346.01 155.74 344.28 155.06 342.23 157.1 342.94 158.84 341.65 158.8 343.82 160.56 345.08"/>
    </g>
  </g>
  <g id="Layer_3_copia" data-name="Layer 3 copia">
    <g>
      <polygon class="cls-4" points="45.77 162.94 48.21 163.61 50.15 161.98 50.27 164.51 52.42 165.85 50.05 166.74 49.44 169.2 47.86 167.22 45.33 167.4 46.72 165.29 45.77 162.94"/>
      <polygon class="cls-4" points="65.49 233.47 66.91 233.51 67.75 232.36 68.15 233.73 69.5 234.17 68.33 234.98 68.33 236.4 67.2 235.53 65.85 235.97 66.32 234.63 65.49 233.47"/>
      <polygon class="cls-4" points="23.61 107.31 23.77 110 26.08 111.39 23.57 112.38 22.96 115.01 21.25 112.92 18.56 113.16 20.01 110.88 18.96 108.4 21.57 109.07 23.61 107.31"/>
      <polygon class="cls-4" points="12.64 206.88 14.51 206.53 15.28 204.79 16.19 206.46 18.08 206.66 16.77 208.04 17.17 209.9 15.45 209.08 13.81 210.03 14.05 208.15 12.64 206.88"/>
    </g>
  </g>
  <g id="Layer_3_copia_2" data-name="Layer 3 copia 2">
    <g>
      <polygon class="cls-4" points="328.46 26.19 330.9 26.86 332.84 25.23 332.95 27.76 335.1 29.1 332.73 29.99 332.12 32.45 330.54 30.47 328.02 30.65 329.41 28.54 328.46 26.19"/>
      <polygon class="cls-4" points="348.18 96.72 349.6 96.76 350.44 95.61 350.84 96.98 352.19 97.42 351.02 98.22 351.01 99.65 349.89 98.78 348.53 99.22 349.01 97.88 348.18 96.72"/>
      <polygon class="cls-4" points="270.34 25.17 270.5 27.87 272.82 29.26 270.31 30.24 269.7 32.87 267.98 30.79 265.29 31.02 266.74 28.75 265.69 26.26 268.3 26.94 270.34 25.17"/>
      <polygon class="cls-4" points="295.33 70.13 297.19 69.78 297.96 68.04 298.87 69.71 300.77 69.91 299.46 71.29 299.86 73.15 298.14 72.33 296.5 73.28 296.74 71.4 295.33 70.13"/>
      <polygon class="cls-4" points="356.36 255.86 358.81 254.98 359.48 252.45 361.08 254.52 363.68 254.37 362.22 256.53 363.16 258.96 360.65 258.23 358.63 259.88 358.55 257.27 356.36 255.86"/>
      <polygon class="cls-4" points="373.72 307.23 375.74 307.88 377.43 306.59 377.43 308.71 379.18 309.91 377.16 310.57 376.56 312.61 375.31 310.89 373.18 310.95 374.43 309.23 373.72 307.23"/>
    </g>
  </g>
  <g id="Layer_3_copia_3" data-name="Layer 3 copia 3">
    <g>
      <polygon class="cls-4" points="117.53 15.03 120.07 13.84 120.52 11.06 122.44 13.11 125.22 12.69 123.87 15.15 125.13 17.66 122.37 17.13 120.38 19.11 120.02 16.32 117.53 15.03"/>
      <polygon class="cls-4" points="111.86 41.73 114.3 42.4 116.24 40.77 116.35 43.3 118.5 44.64 116.13 45.53 115.52 47.99 113.94 46.01 111.42 46.19 112.81 44.08 111.86 41.73"/>
      <polygon class="cls-4" points="131.58 112.27 133 112.31 133.84 111.16 134.24 112.52 135.59 112.96 134.42 113.77 134.41 115.19 133.29 114.32 131.93 114.76 132.41 113.42 131.58 112.27"/>
      <polygon class="cls-4" points="53.74 40.72 53.91 43.41 56.22 44.8 53.71 45.79 53.1 48.42 51.38 46.33 48.69 46.57 50.14 44.29 49.09 41.81 51.7 42.48 53.74 40.72"/>
      <polygon class="cls-4" points="78.73 85.67 80.59 85.32 81.37 83.59 82.28 85.25 84.17 85.45 82.86 86.83 83.26 88.69 81.54 87.87 79.9 88.83 80.14 86.94 78.73 85.67"/>
      <polygon class="cls-4" points="179.27 286.4 181.73 285.52 182.39 282.99 183.99 285.05 186.6 284.91 185.13 287.07 186.08 289.5 183.57 288.77 181.55 290.42 181.47 287.81 179.27 286.4"/>
      <polygon class="cls-4" points="195.49 331.21 193.97 332.3 194.02 334.17 192.51 333.07 190.74 333.69 191.32 331.91 190.19 330.42 192.06 330.43 193.12 328.89 193.7 330.67 195.49 331.21"/>
      <polygon class="cls-4" points="157.12 322.77 159.14 323.42 160.83 322.13 160.83 324.25 162.58 325.46 160.56 326.12 159.96 328.15 158.71 326.44 156.58 326.49 157.83 324.77 157.12 322.77"/>
    </g>
  </g>
  <g id="Layer_3_copia_4" data-name="Layer 3 copia 4">
    <g>
      <polygon class="cls-4" points="91.15 233.7 93.69 232.51 94.15 229.74 96.07 231.78 98.85 231.36 97.49 233.82 98.76 236.33 96 235.8 94 237.78 93.65 234.99 91.15 233.7"/>
      <polygon class="cls-4" points="85.48 260.4 87.93 261.08 89.86 259.44 89.98 261.97 92.13 263.31 89.76 264.21 89.15 266.66 87.57 264.68 85.04 264.87 86.44 262.75 85.48 260.4"/>
      <polygon class="cls-4" points="105.2 330.94 106.62 330.98 107.46 329.83 107.87 331.19 109.22 331.64 108.04 332.44 108.04 333.86 106.91 332.99 105.56 333.43 106.04 332.09 105.2 330.94"/>
      <polygon class="cls-4" points="27.37 259.39 27.53 262.08 29.84 263.47 27.33 264.46 26.72 267.09 25.01 265.01 22.32 265.24 23.77 262.96 22.72 260.48 25.33 261.16 27.37 259.39"/>
      <polygon class="cls-4" points="52.35 304.34 54.22 303.99 54.99 302.26 55.9 303.93 57.79 304.12 56.49 305.5 56.88 307.36 55.17 306.55 53.52 307.5 53.77 305.61 52.35 304.34"/>
      <polygon class="cls-4" points="172.56 216.59 171.05 217.68 171.09 219.55 169.58 218.45 167.82 219.07 168.4 217.29 167.27 215.81 169.14 215.81 170.2 214.28 170.77 216.05 172.56 216.59"/>
      <polygon class="cls-4" points="122.76 182.25 124.78 182.9 126.46 181.61 126.47 183.73 128.22 184.93 126.2 185.59 125.6 187.63 124.34 185.91 122.22 185.97 123.47 184.25 122.76 182.25"/>
    </g>
  </g>
  <g id="Layer_3_copia_5" data-name="Layer 3 copia 5">
    <g>
      <polygon class="cls-4" points="318.07 216.86 320.61 215.66 321.07 212.89 322.99 214.94 325.77 214.51 324.41 216.98 325.68 219.48 322.92 218.96 320.92 220.93 320.57 218.15 318.07 216.86"/>
      <polygon class="cls-4" points="298.19 273.83 300.63 274.5 302.56 272.87 302.68 275.4 304.83 276.74 302.46 277.63 301.85 280.09 300.27 278.11 297.74 278.29 299.14 276.18 298.19 273.83"/>
      <polygon class="cls-4" points="317.9 344.36 319.33 344.4 320.17 343.25 320.57 344.62 321.92 345.06 320.75 345.87 320.74 347.29 319.61 346.42 318.26 346.86 318.74 345.52 317.9 344.36"/>
      <polygon class="cls-4" points="286.91 114.8 287.07 117.49 289.38 118.88 286.87 119.87 286.26 122.5 284.55 120.42 281.86 120.65 283.31 118.37 282.26 115.89 284.87 116.57 286.91 114.8"/>
      <polygon class="cls-4" points="265.05 317.77 266.92 317.42 267.69 315.68 268.6 317.35 270.49 317.55 269.19 318.93 269.59 320.79 267.87 319.97 266.22 320.93 266.47 319.04 265.05 317.77"/>
      <polygon class="cls-4" points="262.96 223.95 264.98 224.61 266.67 223.31 266.67 225.44 268.42 226.64 266.4 227.3 265.8 229.34 264.55 227.62 262.42 227.68 263.67 225.96 262.96 223.95"/>
    </g>
  </g>
  <g id="Livello_4" data-name="Livello 4">
    <g id="astronaut_space" data-name="astronaut space">
      <g>
        <g class="cls-22">
          <g>
            <path class="cls-5" d="M185.98,199.36l-27.23-22.72c-1.58-1.32-2.3-3.68-1.78-6.76l27.23,22.72c-.52,3.09,.2,5.44,1.78,6.76Z"/>
            <g class="cls-2">
              <g class="cls-22">
                <path class="cls-5" d="M185.98,199.36l-27.23-22.72c-1.58-1.32-2.3-3.68-1.78-6.76l27.23,22.72c-.52,3.09,.2,5.44,1.78,6.76h0Z"/>
              </g>
            </g>
          </g>
          <g class="cls-22">
            <path class="cls-6" d="M240.65,44.16l27.23,22.72c-1.6-1.34-4.09-1.61-7.08-.51l-27.23-22.72c2.99-1.11,5.48-.83,7.08,.51Z"/>
            <g class="cls-16">
              <g class="cls-22">
                <path class="cls-6" d="M260.79,66.37l-27.23-22.72c2.34-.87,4.38-.89,5.93-.21l27.23,22.72c-1.54-.68-3.58-.66-5.93,.21h0Z"/>
                <path class="cls-6" d="M266.72,66.16l-27.23-22.72c.42,.19,.81,.42,1.15,.71l27.23,22.72c-.35-.29-.73-.53-1.15-.71h0Z"/>
              </g>
            </g>
          </g>
          <polygon class="cls-5" points="184.2 192.59 156.97 169.88 172.57 76.8 199.8 99.52 184.2 192.59"/>
          <polygon class="cls-6" points="212.43 84.28 185.2 61.57 233.57 43.66 260.79 66.37 212.43 84.28"/>
          <g class="cls-22">
            <path class="cls-5" d="M199.8,99.52l-27.23-22.72c1.04-6.21,6.7-13.04,12.64-15.23l27.23,22.72c-5.94,2.2-11.6,9.02-12.64,15.23Z"/>
            <g class="cls-19">
              <g class="cls-22">
                <path class="cls-5" d="M199.8,99.52l-27.23-22.72c.49-2.95,2.03-6.04,4.15-8.71l27.23,22.72c-2.12,2.67-3.65,5.76-4.15,8.71h0Z"/>
                <path class="cls-6" d="M203.94,90.81l-27.23-22.72c2.34-2.94,5.37-5.37,8.49-6.52l27.23,22.72c-3.12,1.15-6.15,3.58-8.49,6.52h0Z"/>
              </g>
            </g>
          </g>
          <path class="cls-10" d="M260.79,66.37c5.94-2.2,9.91,1.06,8.87,7.27l-15.6,93.07c-1.04,6.21-6.7,13.04-12.64,15.23l-48.36,17.91c-5.94,2.2-9.91-1.06-8.87-7.27l15.6-93.07c1.04-6.21,6.7-13.04,12.64-15.23l48.36-17.91Z"/>
        </g>
        <g class="cls-22">
          <polygon class="cls-10" points="187.05 108.57 191.2 107.02 186.33 135.14 182.17 136.69 187.05 108.57"/>
          <polygon class="cls-6" points="172.57 96.56 176.72 95.01 191.2 107.02 187.05 108.57 172.57 96.56"/>
          <polygon class="cls-8" points="187.05 108.57 182.17 136.69 167.69 124.68 172.57 96.56 187.05 108.57"/>
        </g>
        <g id="_04_man_smart_watch" data-name="04_man_smart_watch">
          <g id="man">
            <g>
              <g>
                <path class="cls-9" d="M273.27,188.79c-.08,.45-.16,.9-.23,1.35-.41,2.45-.63,4.94-.25,7.27,.52,3.2,2.41,6.52,5.64,7.64,.49,.17,1.14,.24,1.58-.15,1.04-.94-.34-2.38-.71-3.08-.65-1.22-1.12-2.55-1.38-3.94-.08-.43-.11-.97,.26-1.31,.24-.21,.58-.28,.87-.23,.29,.05,.53,.2,.75,.36,1.98,1.44,3,3.99,2.67,6.57-.13,1-1,2.86-.3,3.63,1.24,1.37,4.11-.77,4.42-2.32,1.18-.21,3.23-1.09,3.43-2.4,.07-.42,.06-.86,.29-1.24,.14-.23,.36-.42,.56-.62,.69-.73,1.04-1.7,1.13-2.61,.09-.9-.17-1.71-.14-2.59,.03-.87-.07-1.7-.22-2.54-.18-.99-.6-1.93-.75-2.92-.3-1.97-1.56-3.54-2.86-4.93-1.26-1.35-2.66-2.58-3.79-4.02-.75-.96-1.28-1.99-1.74-3.12-.36-.91-1.18-.66-1.98-.04-1.03,.79-1.94,1.55-3.12,2.11-1.17,.56-2.42,.94-3.66,1.15-.38,.06-.82,.15-1.06,.47-.1,.14-.15,.31-.17,.47-.14,.86,.41,1.32,.68,2.03,.28,.74,.38,1.57,.37,2.4,0,.86-.13,1.73-.28,2.61Z"/>
                <path class="cls-9" d="M271.61,120.64c-.14-.63-.28-1.24-.4-1.81-1.06-5.06-2.87-9.96-5.37-14.49-1.96-3.55-5.04-9.83-10.11-8.59-5.41,1.33-9.59,11.86-5.67,23.68,.79,2.38,1.55,4.76,2.31,7.15,3.03,15.04,3.46,24.87,6.2,30.07,.94,1.79,3.05,2.78,4.5,3.57,1.85,1,13.55-11.85,13.55-11.85-.65-8.9-2.37-20.69-5.01-27.72Z"/>
                <path class="cls-14" d="M271.21,118.82c-1.06-5.06-2.87-9.96-5.37-14.49-1.96-3.55-5.04-9.83-10.11-8.59-1.46,.36-2.83,1.4-3.98,2.94,1.21,8.08,2.06,17.52,9.83,21.18,2.99,1.36,5.98,1.36,8.97,2.45,.6,.23,1.19,.36,1.76,.41-.23-.73-.47-1.43-.72-2.08-.14-.63-.28-1.24-.4-1.81Z"/>
                <path class="cls-9" d="M273.29,188.68c.29,2.41,13.05-4.43,12.29-6.42-2.19-5.79-8.97-30.77-9.3-37.82-.14-2.85-9.6-2.49-12.51-.86-6.76,3.77-7.16,7.08-6.5,9.76,1.45,5.94,15.66,32.36,16.02,35.35Z"/>
                <path class="cls-7" d="M285.22,181.22c-.23-.67-.49-1.47-.78-2.39-3.11,3.54-8.4,5.37-13.06,5.03,.47,1.01,.86,1.9,1.18,2.65,4.84,.56,9.78-1.62,12.67-5.3Z"/>
                <path class="cls-7" d="M275.72,139.56c-.15-1.15-.31-2.3-.49-3.44-5.67,4.76-12.88,7.7-20.12,6.29,.22,1.41,.44,2.73,.65,3.97,7.66,1.79,14.66-1.51,19.96-6.82Z"/>
              </g>
              <path class="cls-5" d="M249.94,186.48c-1.13,1.99-3.09,2.02-5.06,2.33-2.1,.33-7.15,2.29-9.3,2.66-6.58,1.13-13.33,2.27-19.91,1.09-3.63-.65-7.1-1.99-10.54-3.33-2.59-1.01-5.18-2.01-7.77-3.02-3.38-1.31-6.99,6.63-6.06,2.19,1.88-9.03,12.08-48.6,9.36-60.51-1.76-7.69-7.19-12.66-5.33-18.17,3.2-9.46,18.66-17.4,44.47-20.9,4.1-.56,11.91-2.1,15.23,.35,2.86,2.11,3.71,5.94,4.4,9.22,1.35,6.39,.33,12.74-.57,19.19-.11,.81-.23,1.62-.35,2.43h0c-.83,5.52-1.83,11-2.78,16.49-.17,.97-.33,1.93-.5,2.89-2.46,14.48-3.24,29.23-4.53,43.84-.1,1.12-.21,2.28-.77,3.25Z"/>
              <path class="cls-5" d="M129.07,295.95c3.56-8.53,5.91-16.66,6.89-17.33,2.06-1.42,7.18-2.42,10.68-3.76,3.18-1.22-.08-4.05-.2-7.3-.07-1.69,1.54,2.58,.48,1.34-2.69-3.14-1.95-2.85-5.5-2.99-.63-1.07-1.8-1.53-2.43-2.19-3.09-3.24-2.4-6.08-9.93-4.53-1.62,.33-3.26,.81-4.53,1.87-1.42,1.19-2.2,2.99-2.65,4.79-.45,1.8-.61,3.66-1.07,5.46-1.36,5.37-9.26,13.95-6.46,20.23,5.34,11.96,13.46,7.45,14.72,4.42Z"/>
              <path class="cls-11" d="M206.61,287.51c.58-.08,1.15-.07,1.67,.2,1.82,.94,3.07,3.99,3.64,5.81,1.13,3.6,1.5,7.42,2.8,10.97,.7,1.9,1.67,3.69,2.65,5.47,1.06,1.93,2.12,3.87,3.14,5.81,.83,1.59,1.1,3.4,.54,5.13-.41,1.28-1.21,2.39-2.06,3.42-1.12,1.37-2.94,2.04-4.66,2.24-3.66,.44-7.42-1.31-9.75-4.16-2.2-2.69-3.94-6.61-4.62-10-.46-2.26-1.07-4.1-2.36-6.1-1-1.56-2.25-2.95-3.26-4.51-1.01-1.56-1.79-3.35-1.69-5.2,.09-1.65,.86-3.18,1.72-4.59,.94-1.55,9.26-14.03,11.12-14.59,1.66-.5-2.8,10.45-1.04,10.42,.68,0,1.43-.24,2.15-.33Z"/>
              <path class="cls-11" d="M250.59,184.27c-.01-2.99-5.94,9.32-5.97,6.51-.02-2.12-.22-2.31-.25-4.38-.09-5.92-5.79-5.89-7.54-7.57-2.41-2.31-1.21,11.6-4.3,12.3-20.56,4.62-16.94,26.86-17.13,36.77-.06,3.32,2.2,17.59,3.6,27.64-5.52,7.14-15.04,21.2-18.94,28.7-1.16,2.23-3.06,5.04-1.58,8,2.07,4.14,8.04,6.85,10.93,6.01,2.69-.79,29.51-31.03,29.51-31.33,9.16-12.39,11.71-74.65,11.67-82.64Z"/>
              <path class="cls-3" d="M216.83,291.33c-2.28,.29-4.62,.08-6.9-.72-3.99-1.41-6.77-5.05-8.32-9.17-.54,.95-1.03,1.83-1.46,2.65,1.14,2.52,2.49,4.83,4.89,6.8,2.69,2.15,5.92,3.11,9.15,3.16,.82-.82,1.7-1.73,2.64-2.71Z"/>
              <path class="cls-14" d="M231.14,263.14c-3.51,4.33-3.57,9.76-1.97,14.85,5.39-5.97,9.76-10.97,9.76-11.09,1.79-2.42,3.33-6.76,4.65-12.22-4.96,1.25-9.26,4.38-12.43,8.45Z"/>
              <path class="cls-5" d="M240,182.03c-8.86,2.55-12.16,1.1-22.86-3.75-2.4-1.09-4.53-3.32-7.04-4.05-2.37-.69-5.06-.04-7.17,1.12-2.24,1.23-4.09,3.08-5.74,5.03-4.18,4.95-2.47-4.63-4.43,1.54-.97,3.04-6.18,21.42-6.81,24.5-.67,3.27-1.52,6.5-2.38,9.72-1.05,3.98-5.28,14.72-7.84,22.95-6.38,2.53-12.67,5.25-18.87,8.18-5.25,2.47-10.45,5.05-15.76,7.37-2.59,1.13-5.2,2.21-7.84,3.23-1.3,.51-3.4,.82-4.06,2.1-.74,1.43-1.05,3.09-.84,4.69,.09,.7,.27,1.38,.45,2.06,.59,2.2,1.18,4.41,2.11,6.49,.84,1.87,1.98,3.65,3.52,5.01,.73,.64,1.09,.48,1.98,.28,.82-.18,1.63-.39,2.44-.6,3.36-.9,6.72-1.94,9.93-3.29,12.54-5.24,28.27-8.88,37.62-12.77,1.87-.78,7.38-3.41,8.9-4.78,2.79-2.25,16.35-19.35,23.35-33.2,1.23-2.43,3.32-4.11,8.89-6.04,3.33-1.15,22.9-2.32,23.04-33.57,.02-3.73-11.03,1.53-10.59-2.24Z"/>
              <path class="cls-3" d="M137.53,256.17c-1.37,.57-2.75,1.12-4.13,1.66-1.11,7.2,1.33,14.43,5.81,20,1.03-.28,2.07-.58,3.1-.89-5.59-4.53-6.68-13.75-4.78-20.77Z"/>
              <path class="cls-14" d="M184.37,253.9c-6.33,2.19-13.53,6.78-15.36,13.77,6.59-2.03,12.77-3.89,17.4-5.81,1.87-.78,7.38-3.41,8.9-4.78,.47-.38,1.25-1.18,2.25-2.32-3.96-2.73-8.82-2.4-13.19-.86Z"/>
              <path class="cls-10" d="M243.22,157.37c1.66-10.98,2.43-22.1,2.36-33.2-.02-3.11-.07-6.23-.29-9.33-.11-1.55-.2-3.11-.44-4.65-.24-1.51-.43-3.14-1.37-4.39-.57-.76-1.71-.65-2.14,.19-1.16,2.29-.64,5.51-.56,8,.09,2.68,.18,5.36,.22,8.04,.08,5.42-.06,10.83-.41,16.24-.71,10.79-2.23,21.53-4.55,32.08-.65,2.96-1.37,5.9-2.15,8.82-.65,2.45-2.52,6.27-.78,8.27,.29,.33,.72,.64,1.2,.55,2.74-.56,3.06-3.75,3.68-6.02,.74-2.67,1.42-5.35,2.05-8.04,1.28-5.47,2.34-11,3.18-16.56Z"/>
              <path class="cls-3" d="M238.54,189.5c4.4-.88,8.22-3,12.06-5.23,.05-.35,.08-.7,.11-1.05,.18-1.99,.34-3.99,.5-5.99-6.91,3.9-14.97,5.84-23.09,6.94-11.82,1.52-23.06-1.81-32.98-7.28-.37-.19-.72-.4-1.07-.63-.47,2.05-.91,3.95-1.3,5.65,7.03,4,14.41,7.18,22.48,8.56,7.76,1.56,15.49,.52,23.3-.98Z"/>
            </g>
          </g>
        </g>
        <g id="head">
          <path class="cls-10" d="M223.87,79.93c-2.05,6.8-5.65,8.77-6.81,14.36-4.27,20.66,38.27,28.28,40.99,8.63,.98-7.05,1.62-12.52,1.8-16.86l-35.98-6.13Z"/>
        </g>
        <g>
          <g class="cls-22">
            <g class="cls-22">
              <g class="cls-18">
                <g class="cls-22">
                  <path class="cls-5" d="M219.9,90.55l-6.32-5.29c.38-.14,.73-.21,1.05-.22l6.32,5.29c-.32,.01-.67,.08-1.05,.22h0Z"/>
                  <path class="cls-5" d="M220.95,90.33l-6.32-5.29c.49-.02,.91,.11,1.23,.36l6.32,5.29c-.32-.25-.74-.37-1.23-.36h0Z"/>
                  <path class="cls-8" d="M222.18,90.69l-6.32-5.29s.03,.03,.05,.04l6.32,5.29s-.03-.03-.05-.04h0Z"/>
                </g>
              </g>
            </g>
            <g class="cls-22">
              <g class="cls-17">
                <g class="cls-22">
                  <path class="cls-8" d="M216.27,97.76l-6.32-5.29c-.52-.44-.75-1.22-.57-2.23,.14-.78,.5-1.59,1-2.33l6.32,5.29c-.5,.74-.86,1.55-1,2.33-.18,1.01,.05,1.79,.57,2.23h0Z"/>
                  <path class="cls-5" d="M216.7,93.2l-6.32-5.29c.39-.58,.87-1.11,1.4-1.56l6.32,5.29c-.53,.45-1,.99-1.4,1.56h0Z"/>
                  <path class="cls-6" d="M218.1,91.63l-6.32-5.29c.56-.48,1.18-.86,1.8-1.08l6.32,5.29c-.62,.23-1.24,.61-1.8,1.08h0Z"/>
                </g>
              </g>
            </g>
            <path class="cls-12" d="M219.9,90.55c1.96-.71,3.26,.37,2.9,2.41-.36,2.04-2.24,4.27-4.2,4.98-1.96,.71-3.26-.37-2.9-2.41,.36-2.04,2.24-4.27,4.2-4.98Z"/>
          </g>
          <g class="cls-22">
            <g class="cls-22">
              <g class="cls-21">
                <g class="cls-22">
                  <path class="cls-5" d="M222.69,93.49l-2.46-2.05c.33-.12,.63-.18,.91-.19l2.46,2.05c-.28,0-.58,.07-.91,.19h0Z"/>
                  <path class="cls-5" d="M223.6,93.3l-2.46-2.05c.43-.01,.79,.1,1.06,.31l2.46,2.05c-.28-.21-.64-.32-1.06-.31h0Z"/>
                  <path class="cls-8" d="M224.66,93.61l-2.46-2.05s.03,.02,.04,.04l2.46,2.05s-.03-.02-.04-.04h0Z"/>
                </g>
              </g>
            </g>
            <g class="cls-22">
              <g class="cls-20">
                <g class="cls-22">
                  <path class="cls-8" d="M219.56,99.72l-2.46-2.05c-.45-.38-.65-1.05-.49-1.93,.12-.68,.43-1.38,.86-2.02l2.46,2.05c-.43,.64-.75,1.34-.86,2.02-.15,.88,.05,1.55,.49,1.93h0Z"/>
                  <path class="cls-5" d="M219.93,95.78l-2.46-2.05c.34-.5,.75-.96,1.21-1.35l2.46,2.05c-.45,.39-.87,.85-1.21,1.35h0Z"/>
                  <path class="cls-6" d="M221.14,94.43l-2.46-2.05c.48-.41,1.02-.74,1.56-.94l2.46,2.05c-.54,.19-1.07,.52-1.56,.94h0Z"/>
                </g>
              </g>
            </g>
            <path class="cls-12" d="M222.69,93.49c1.69-.61,2.81,.32,2.5,2.09-.31,1.76-1.93,3.69-3.63,4.3s-2.81-.32-2.5-2.09c.31-1.76,1.93-3.69,3.62-4.3Z"/>
          </g>
        </g>
        <path class="cls-5" d="M244.89,111.75c-14.93,2.68-27.24-8.29-29.62-23.73-3.14-20.36,10.5-39.28,33.42-33.49,15.14,3.82,19.14,15.48,18.82,27.56-.35,13.32-7.42,26.93-22.62,29.66Z"/>
        <path class="cls-14" d="M267.51,82.09c.13-5.16-.52-10.24-2.49-14.66-12.07-2.94-27.24,.39-33.28,12.41-3.88,7.9-4.92,20.22,2.45,25.21,7.2,4.74,17.4,4.28,24.67-1.28,1.16-.98,2.13-2,3.05-3.08,3.62-5.37,5.43-12.02,5.6-18.59Z"/>
        <g class="cls-22">
          <polygon class="cls-8" points="226.88 164.21 219.39 157.97 223.51 133.4 230.99 139.65 226.88 164.21"/>
          <polygon class="cls-6" points="230.99 139.65 223.51 133.4 253.58 122.26 261.07 128.51 230.99 139.65"/>
          <polygon class="cls-11" points="261.07 128.51 256.95 153.08 226.88 164.21 230.99 139.65 261.07 128.51"/>
        </g>
        <path class="cls-15" d="M235.45,81.34c-.56,1.57-.79,3.4,.06,4.84,.76,1.27,2.25,1.98,3.73,2.09,1.48,.11,2.94-.29,4.33-.8,3.55-1.32,6.96-3.59,8.52-7.04,1.95-4.3-1.14-9.09-5.96-8.22-4.48,.81-9.18,4.93-10.69,9.13Z"/>
      </g>
      <path class="cls-11" d="M132.73,216.91c-3.55,0-7.19-.33-10.86-1.09-4.62-.95-8-2.37-10.64-4.48-8.77-6.99-7.99-20.89-1.75-29.5,6.34-8.74,16.83-13.37,26.26-16.74,1.4-.5,2.83-1,4.21-1.48,8.22-2.86,16.71-5.81,23.5-11.19,4.04-3.2,6.27-6.57,6.63-10,.3-2.89-.66-5.54-2.85-7.85-3.71-3.92-10.52-6.33-16.95-6.01-19.68,.98-35.91,14.38-51.61,27.33l-.33,.27c-3.73,3.08-8.37,6.9-13.82,8.67-8.85,2.86-19.37-.42-25.03-7.79-5.66-7.38-6.1-18.39-1.05-26.2,3.83-5.92,10-9.51,15.97-12.99,4.94-2.88,10.05-5.85,13.7-10.11,7.89-9.2,7.68-24.71-.47-34.57-7.7-9.33-21.83-13.49-34.36-10.12l-.56-2.1c6.38-1.71,13.45-1.64,19.93,.21,6.76,1.93,12.52,5.6,16.67,10.63,4.22,5.11,6.62,11.75,6.77,18.72,.15,7.1-2.1,13.73-6.33,18.66-3.89,4.53-9.16,7.6-14.25,10.57-6.01,3.5-11.69,6.81-15.24,12.29-4.57,7.06-4.17,17.02,.95,23.69,5.12,6.67,14.64,9.63,22.64,7.05,4.68-1.51,8.54-4.51,13.1-8.27l.33-.27c7.8-6.44,15.86-13.09,24.55-18.3,9.92-5.95,19.19-9.07,28.33-9.52,7.03-.35,14.52,2.34,18.64,6.69,2.61,2.76,3.8,6.07,3.43,9.57-.42,4.04-2.92,7.9-7.44,11.48-7.08,5.61-15.75,8.63-24.14,11.54-1.38,.48-2.81,.97-4.19,1.47-9.12,3.26-19.25,7.72-25.23,15.97-5.53,7.63-6.34,20.4,1.34,26.52,2.37,1.89,5.46,3.17,9.73,4.05,16.27,3.35,31.89-2.01,42.12-7.1,13.16-6.54,24.77-15.99,36-25.13l1.37,1.69c-11.32,9.21-23.03,18.74-36.4,25.39-8.25,4.1-19.9,8.37-32.66,8.37Z"/>
      <g class="cls-22">
        <polygon class="cls-15" points="200.46 181.48 204.18 180.16 197.4 176.96 193.69 178.28 200.46 181.48"/>
        <polygon class="cls-14" points="200.59 188.45 204.31 187.13 204.18 180.16 200.46 181.48 200.59 188.45"/>
        <polygon class="cls-13" points="200.46 181.48 193.69 178.28 193.82 185.25 200.59 188.45 200.46 181.48"/>
      </g>
      <g>
        <g>
          <path class="cls-6" d="M180.19,158.82c4.45-4.16,12.34-14.39,17.28-19.92,4.17-4.67,2.43-5.96,6.08-10.66l-10.31-18.8c-1.83,1.91-3.38,4.39-4.93,6.23-2.53,3.01-5.7,4.86-9.1,8.98-5.04,6.12-10.31,14.83-12.61,20.23-.94,2.2,3,2.31,3.23,6.45,.1,1.84-2.12,3.15-.77,4.39,1.79,1.64,9.4,4.71,11.11,3.11Z"/>
          <g>
            <path class="cls-6" d="M169.78,200.21c1.12-3.09,1.67-12.11,.23-15.06,0,0-1.87-.58-1.6-3.33,.09-.95-6.35,2.84-7.38,2.45-.89-.34-1.91-.04-2.62,.53-1.99,1.61-3.43,3.3-4.57,5.59-1.19,2.38-1.99,4.94-2.35,7.57-.08,.62-.06,1.41,.51,1.67,.37,.17,.84,.03,1.19,.25,.68,.42,.15,1.45,.17,2.25,.03,1.23,1.95,1.84,2.68,.84-.05,1.01-.02,2.12,.62,2.9,.64,.78,2.12,.88,2.54-.04-.41,1.05,.19,2.38,1.25,2.76,1.06,.38,2.37-.27,2.71-1.34,.26-.8,.01-1.67,0-2.51-.03-2.77,2.35-4.85,3.59-7.35,.2,.53,.38,1.67,.34,1.79-.16,.48-.32,.97-.29,1.48,.03,.5,.27,1.03,.73,1.24,.48,.22,1.07,.03,1.45-.32,.39-.36,.61-.85,.79-1.35Z"/>
            <path class="cls-6" d="M165.7,189.38c1.93-.83,3.52-2.1,4.78-3.64,3.17-8.64,7.23-21.51,11.5-28.73,1.76-2.97,1.65-9-.6-11.62-5.07-5.9-13.13-6.57-15.4,1.09-1.29,4.34-4.94,13.51-7.7,26.78-.57,2.76-1.37,9.14-1.66,12.74,1.45,3.28,5.77,4.8,9.07,3.37Z"/>
            <path class="cls-3" d="M163.91,185.81c-2.85,.36-5.3-1.3-6.91-3.47-.15,1.35-.28,2.62-.36,3.66,1.45,3.28,5.77,4.8,9.07,3.37,1.93-.83,3.52-2.1,4.78-3.64,.36-.98,.73-2.01,1.11-3.08-2.26,1.53-4.78,2.64-7.69,3.14Z"/>
            <path class="cls-6" d="M187.72,114.24c.1-.11,.19-.22,.29-.33,2.43-2.69,4.79-6.14,8.14-7.76,4.5-2.17,10.1-5.22,14.84-1.74,3.73,2.74,2.52,7.95,1.38,11.14-1.5,4.2-4.5,7.68-6.7,11.5-8.65,15.07-11.8,14.66-13.8,14.37-4.82-.69-3.82-2.06-5.88-3.98-2.44-2.26-4.88-4.53-7.33-6.79-.62-.57-1.27-1.21-1.38-2.04-.11-.84,.36-1.64,.83-2.35,2.85-4.35,6.18-8.16,9.6-12.02Z"/>
            <path class="cls-14" d="M212.37,115.54c1.14-3.19,2.36-8.4-1.38-11.14-4.74-3.48-10.35-.43-14.84,1.74-3.35,1.62-5.71,5.07-8.14,7.76-.1,.11-.2,.22-.29,.33-2.28,2.57-4.51,5.12-6.59,7.81,.42,.54,.88,1.04,1.37,1.51,5.24,4.85,12.58,3.76,18.45,.25,3.01-1.97,6.41-4.31,9.85-4.87,.61-1.09,1.15-2.21,1.57-3.4Z"/>
          </g>
        </g>
        <path class="cls-3" d="M171.07,136.38c-.87,1.45-1.67,2.87-2.38,4.21,1.57,2.67,3.71,4.93,6.24,6.71,3.25,2.47,7.6,4.41,11.79,4.37,.91-1.08,1.85-2.19,2.78-3.32-7.53-.21-14.89-5.42-18.43-11.97Z"/>
      </g>
    </g>
  </g>
</svg>