<?xml version="1.0" encoding="UTF-8"?><svg id="Livello_2" xmlns="http://www.w3.org/2000/svg" viewBox="0 0 391.61 326.37"><defs><style>.cls-1{fill:#fff;}</style></defs><g id="Livello_1-2"><g><path class="cls-1" d="M388.86,71.35c-11.14-29.62-29.68-39.76-50.09-47.44-6.27-2.36-12.86-3.53-19.12-4.98-1.88-.43-3.55-.76-5.04-1-.02,0-.03,0-.05-.01-2.25-.4-6.25-.64-6.25-.64h0c-1-.1-2.06,.04-3.16,.61-1.77,.93-3.02,2.72-3.14,4.72-.17,2.8,1.68,5.19,4.23,5.87h0s4.5,1.22,11.18,4.74c39.28,21.36,35.11,45.88,21.81,64.65-11.31,15.98-29.25,27.78-32.61,29.91-.11,.07-.2,.13-.28,.18-.06,.04-.11,.07-.15,.09-.08,.05-.12,.08-.12,.08-20.95,13.58-51.87,26.75-97.45,35.35-25.99,4.9-47.34,10.54-64.82,16.61-57.94,20.14-73.56,45.09-75.56,63.93-.04,.41-.09,.81-.11,1.2-.87,11.28,3.33,22.32,11.06,30.58,29.14,31.12,70.6,50.57,116.6,50.57,88.22,0,159.73-71.52,159.73-159.73v-.34c39.17-32.6,37.04-74.66,35.35-87.31-.47-3.08-1.51-6.21-2.01-7.63Z"/><path class="cls-1" d="M2.75,255.02c11.14,29.62,29.68,39.76,50.09,47.44,6.27,2.36,12.86,3.53,19.12,4.98,1.88,.43,3.55,.76,5.04,1,.02,0,.03,0,.05,.01,2.25,.4,6.25,.64,6.25,.64h0c1,.1,2.06-.04,3.16-.61,1.77-.93,3.02-2.72,3.14-4.72,.17-2.8-1.68-5.19-4.23-5.87h0s-4.5-1.22-11.18-4.74c-39.28-21.36-35.11-45.88-21.81-64.65,11.31-15.98,29.25-27.78,32.61-29.91,.11-.07,.2-.13,.28-.18,.06-.04,.11-.07,.15-.09,.08-.05,.12-.08,.12-.08,20.95-13.58,51.87-26.75,97.45-35.35,25.99-4.9,47.34-10.54,64.82-16.61,57.94-20.14,73.56-45.09,75.56-63.93,.04-.41,.09-.81,.11-1.2,.87-11.28-3.33-22.32-11.06-30.58C283.28,19.44,241.81,0,195.81,0,107.59,0,36.09,71.52,36.09,159.73v.34C-3.08,192.68-.95,234.73,.74,247.39c.47,3.08,1.51,6.21,2.01,7.63Z"/></g></g></svg>