<svg xmlns="http://www.w3.org/2000/svg"  viewBox="0 0 50 50" width="50px" height="50px"><path d="M 16 6 C 14.839844 6 14 6.839844 14 8 L 14 11 L 3 11 C 1.839844 11 1 11.839844 1 13 L 1 41 C 1 42.160156 1.839844 43 3 43 L 47 43 C 48.160156 43 49 42.160156 49 41 L 49 13 C 49 11.839844 48.160156 11 47 11 L 36 11 L 36 8 C 36 6.839844 35.160156 6 34 6 Z M 25 13 C 32.199219 13 38 18.800781 38 26 C 38 33.199219 32.199219 39 25 39 C 17.800781 39 12 33.199219 12 26 C 12 18.800781 17.800781 13 25 13 Z M 43 15 C 44.105469 15 45 15.894531 45 17 C 45 18.105469 44.105469 19 43 19 C 41.894531 19 41 18.105469 41 17 C 41 15.894531 41.894531 15 43 15 Z M 25 16 C 19.5 16 15 20.5 15 26 C 15 31.5 19.5 36 25 36 C 30.5 36 35 31.5 35 26 C 35 20.5 30.5 16 25 16 Z"/></svg>